<svg width="48" height="48" viewBox="0 0 48 48" fill="none" xmlns="http://www.w3.org/2000/svg">
<circle cx="24" cy="24" r="24" fill="#25D4D0"/>
<circle cx="23.4386" cy="17.0374" r="6.37071" stroke="white" stroke-width="2" stroke-linecap="round" stroke-linejoin="round"/>
<path fill-rule="evenodd" clip-rule="evenodd" d="M13.3333 32.2685C13.3316 31.8206 13.4318 31.3782 13.6263 30.9748C14.2365 29.7544 15.9573 29.1075 17.3852 28.8146C18.415 28.5949 19.4591 28.448 20.5096 28.3753C22.4544 28.2044 24.4106 28.2044 26.3555 28.3753C27.4059 28.4489 28.4498 28.5957 29.4798 28.8146C30.9077 29.1075 32.6285 29.6933 33.2388 30.9748C33.6298 31.7972 33.6298 32.752 33.2388 33.5743C32.6285 34.8558 30.9077 35.4416 29.4798 35.7223C28.4512 35.9512 27.4068 36.1021 26.3555 36.1739C24.7725 36.3081 23.1821 36.3326 21.5957 36.2471C21.2296 36.2471 20.8757 36.2471 20.5096 36.1739C19.4622 36.103 18.4218 35.9521 17.3974 35.7223C15.9573 35.4416 14.2487 34.8558 13.6263 33.5743C13.4328 33.1662 13.3327 32.7201 13.3333 32.2685Z" stroke="white" stroke-width="2" stroke-linecap="round" stroke-linejoin="round"/>
</svg>
