<svg width="173" height="160" viewBox="0 0 173 160" fill="none" xmlns="http://www.w3.org/2000/svg">
<path d="M112.411 65.7403V96.1312C112.411 98.7739 110.866 101.417 108.659 102.738L85.2689 116.172C83.9449 117.052 82.1795 117.493 80.6349 117.493V79.6145L111.307 61.9966C112.19 63.0977 112.411 64.4191 112.411 65.7403Z" fill="#8E96AB"/>
<path d="M80.6349 79.6145V117.493C79.0902 117.493 77.5456 117.052 76.001 116.172L52.6104 102.738C50.1831 101.417 48.8591 98.994 48.8591 96.1312V65.7403C48.8591 64.4191 49.3004 63.0977 49.9624 61.9966L80.6349 79.6145Z" fill="#393F4E"/>
<path d="M111.528 61.9965L80.8554 79.6144L49.9622 61.7763C50.6241 60.6751 51.5068 59.574 52.8309 58.9133L76.8834 45.0393C79.09 43.7179 81.9587 43.7179 84.386 44.8189L108.88 59.3538C108.88 59.3538 108.88 59.3538 109.101 59.3538C109.983 60.0144 110.866 60.8953 111.528 61.9965Z" fill="#8E96AB"/>
<path d="M112.411 22.9917V53.3825C112.411 56.0252 110.866 58.6679 108.659 59.9891L85.2689 73.4228C83.9449 74.3037 82.1795 74.7442 80.6349 74.7442V36.8657L111.307 19.2478C112.19 20.3489 112.411 21.6703 112.411 22.9917Z" fill="#474E61"/>
<path d="M80.6349 36.8657V74.7442C79.0902 74.7442 77.5456 74.3037 76.001 73.4228L52.6104 59.9891C50.1831 58.6679 48.8591 56.2454 48.8591 53.3825V22.9917C48.8591 21.6703 49.3004 20.3489 49.9624 19.2478L80.6349 36.8657Z" fill="#393F4E"/>
<path d="M111.528 19.2474L80.8554 36.8653L49.9622 19.0272C50.6241 17.926 51.5068 16.8249 52.8309 16.1642L76.8834 2.29019C79.09 0.968848 81.9587 0.968846 84.386 2.06996L108.88 16.6048C108.88 16.6048 108.88 16.6048 109.101 16.6048C109.983 17.2653 110.866 18.1463 111.528 19.2474Z" fill="#8E96AB"/>
<path d="M77.5198 85.7788V116.17C77.5198 118.812 75.9752 121.455 73.7686 122.776L50.378 136.21C49.0541 137.091 47.2887 137.531 45.744 137.531V99.6528L76.4166 82.0349C77.2991 83.1361 77.5198 84.4574 77.5198 85.7788Z" fill="#474E61"/>
<path d="M45.7441 99.6528V137.531C44.1994 137.531 42.6547 137.091 41.11 136.21L17.7196 122.776C15.2921 121.455 13.9682 119.032 13.9682 116.17V85.7788C13.9682 84.4574 14.4095 83.1361 15.0716 82.0349L45.7441 99.6528Z" fill="#393F4E"/>
<path d="M76.6369 82.0345L45.9644 99.6524L15.0714 81.8144C15.7333 80.7131 16.616 79.6121 17.9399 78.9514L41.9925 65.0773C44.1991 63.7559 47.0678 63.7559 49.4951 64.8571L73.9891 79.3919C73.9891 79.3919 73.9891 79.3919 74.2096 79.3919C75.0923 80.0526 75.975 80.9335 76.6369 82.0345Z" fill="#8E96AB"/>
<path d="M147.302 87.1148V117.506C147.302 120.148 145.757 122.791 143.55 124.112L120.16 137.547C118.836 138.427 117.07 138.867 115.526 138.867V100.989L146.198 83.3711C147.081 84.4722 147.302 85.7936 147.302 87.1148Z" fill="#474E61"/>
<path d="M115.526 100.989V138.867C113.981 138.867 112.437 138.427 110.892 137.547L87.5013 124.112C85.074 122.791 83.7499 120.369 83.7499 117.506V87.1148C83.7499 85.7936 84.1913 84.4722 84.8533 83.3711L115.526 100.989Z" fill="#393F4E"/>
<path d="M146.419 83.3705L115.746 100.988L84.853 83.1503C85.515 82.0492 86.3977 80.948 87.7216 80.2873L111.774 66.4133C113.981 65.0919 116.849 65.0919 119.277 66.1931L143.77 80.7278C143.77 80.7278 143.77 80.7278 143.991 80.7278C144.874 81.3885 145.756 82.2694 146.419 83.3705Z" fill="#8E96AB"/>
<path d="M77.5198 43.0305V73.4214C77.5198 76.064 75.9752 78.7067 73.7686 80.0281L50.378 93.4616C49.0541 94.3425 47.2887 94.783 45.744 94.783V56.9045L76.4166 39.2866C77.2991 40.3878 77.5198 41.7091 77.5198 43.0305Z" fill="#474E61"/>
<path d="M45.7441 56.9045V94.783C44.1994 94.783 42.6547 94.3425 41.11 93.4616L17.7196 80.0281C15.2921 78.7067 13.9682 76.2842 13.9682 73.4214V43.0305C13.9682 41.7091 14.4095 40.3878 15.0716 39.2866L45.7441 56.9045Z" fill="#393F4E"/>
<path d="M76.6369 39.286L45.9644 56.9038L15.0714 39.0657C15.7333 37.9646 16.616 36.8636 17.9399 36.2029L41.9925 22.3287C44.1991 21.0074 47.0678 21.0074 49.4951 22.1085L73.9891 36.6432C73.9891 36.6432 73.9891 36.6432 74.2096 36.6432C75.0923 37.3039 75.975 38.1848 76.6369 39.286Z" fill="#8E96AB"/>
<path d="M171.488 21.7219V52.1128C171.488 54.7554 169.944 57.3981 167.737 58.7194L144.347 72.153C143.022 73.0339 141.257 73.4744 139.712 73.4744V35.5959L170.385 17.978C171.267 19.0791 171.488 20.4005 171.488 21.7219Z" fill="#5C6479"/>
<path d="M139.712 35.5959V73.4744C138.168 73.4744 136.623 73.0339 135.078 72.153L111.688 58.7194C109.26 57.3981 107.936 54.9756 107.936 52.1128V21.7219C107.936 20.4005 108.378 19.0791 109.04 17.978L139.712 35.5959Z" fill="#393F4E"/>
<path d="M170.606 17.9776L139.933 35.5956L109.04 17.7575C109.702 16.6563 110.584 15.5552 111.908 14.8945L135.961 1.02041C138.168 -0.300927 141.036 -0.300928 143.463 0.800189L167.957 15.335C167.957 15.335 167.957 15.335 168.178 15.335C169.06 15.9956 169.943 16.8766 170.606 17.9776Z" fill="#474E61"/>
<path d="M112.411 107.153V137.544C112.411 140.187 110.866 142.829 108.659 144.151L85.2689 157.585C83.9449 158.466 82.1795 158.905 80.6349 158.905V121.027L111.307 103.41C112.19 104.511 112.411 105.832 112.411 107.153Z" fill="#474E61"/>
<path d="M80.6349 121.027V158.905C79.0902 158.905 77.5456 158.465 76.001 157.585L52.6104 144.151C50.1831 142.829 48.8591 140.406 48.8591 137.544V107.153C48.8591 105.832 49.3004 104.51 49.9624 103.409L80.6349 121.027Z" fill="#393F4E"/>
<path d="M111.528 103.409L80.8554 121.027L49.9622 103.189C50.6241 102.088 51.5068 100.987 52.8309 100.326L76.8834 86.452C79.09 85.1307 81.9587 85.1307 84.386 86.2318L108.88 100.767C108.88 100.767 108.88 100.767 109.101 100.767C109.983 101.427 110.866 102.308 111.528 103.409Z" fill="#8E96AB"/>
<path d="M112.411 64.4043V94.7951C112.411 97.4378 110.866 100.08 108.659 101.402L85.2689 114.835C83.9449 115.716 82.1795 116.157 80.6349 116.157V78.2783L111.307 60.6604C112.19 61.7615 112.411 63.0829 112.411 64.4043Z" fill="#474E61"/>
<path d="M80.6349 78.2784V116.157C79.0902 116.157 77.5456 115.717 76.001 114.836L52.6104 101.402C50.1831 100.081 48.8591 97.6581 48.8591 94.7952V64.4044C48.8591 63.0831 49.3004 61.7617 49.9624 60.6606L80.6349 78.2784Z" fill="#393F4E"/>
<path d="M111.528 60.6602L80.8554 78.2781L49.9622 60.44C50.6241 59.3389 51.5068 58.2377 52.8309 57.5771L76.8834 43.703C79.09 42.3817 81.9587 42.3817 84.386 43.4828L108.88 58.0175C108.88 58.0175 108.88 58.0175 109.101 58.0175C109.983 58.6782 110.866 59.5591 111.528 60.6602Z" fill="#8E96AB"/>
</svg>
