<svg width="130" height="28" viewBox="0 0 130 28" fill="none" xmlns="http://www.w3.org/2000/svg">
<path d="M91.2133 25.1333C91.2133 23.56 89.9333 22.28 88.36 22.28C86.7867 22.28 85.5067 23.56 85.5067 25.1333C85.5067 26.7067 86.7867 27.9867 88.36 27.9867C89.9333 27.9867 91.2133 26.7067 91.2133 25.1333Z" fill="url(#paint0_linear_269_11936)"/>
<path d="M91.2133 25.1333C91.2133 23.56 89.9333 22.28 88.36 22.28C86.7867 22.28 85.5067 23.56 85.5067 25.1333C85.5067 26.7067 86.7867 27.9867 88.36 27.9867C89.9333 27.9867 91.2133 26.7067 91.2133 25.1333Z" fill="white"/>
<path d="M116.68 27.9733L121.213 27.9867L108.733 1.09333L96.4667 28H100.96L108.733 10.88L116.68 27.9733Z" fill="url(#paint1_linear_269_11936)"/>
<path d="M116.68 27.9733L121.213 27.9867L108.733 1.09333L96.4667 28H100.96L108.733 10.88L116.68 27.9733Z" fill="white"/>
<path d="M125.173 1.08001H129.853V8.73334V12.0133V27.92H125.173V12.0133V8.73334V1.08001Z" fill="url(#paint2_linear_269_11936)"/>
<path d="M125.173 1.08001H129.853V8.73334V12.0133V27.92H125.173V12.0133V8.73334V1.08001Z" fill="white"/>
<path d="M0 18.5333C0.0133333 19.1333 0.0933309 19.7333 0.226664 20.3333C2.49333 29.7467 21.48 29.7733 21.6133 18.4667V0H17.3733V18.36C17.3733 22.9467 5.66665 24.8667 4.35999 19.3467C4.29332 19.0533 4.25332 18.7467 4.23999 18.44V0H0V18.5333Z" fill="url(#paint3_linear_269_11936)"/>
<path d="M0 18.5333C0.0133333 19.1333 0.0933309 19.7333 0.226664 20.3333C2.49333 29.7467 21.48 29.7733 21.6133 18.4667V0H17.3733V18.36C17.3733 22.9467 5.66665 24.8667 4.35999 19.3467C4.29332 19.0533 4.25332 18.7467 4.23999 18.44V0H0V18.5333Z" fill="white"/>
<path d="M32.5067 26.8933V15.4667V15.4533H40.52L47.1333 26.92H51.8667L45.0267 15.0667C46.5467 14.5467 47.7867 13.6267 48.7467 12.32C49.72 10.9733 50.2 9.46667 50.2 7.8C50.2 5.68 49.4533 3.86667 47.96 2.36001C46.4533 0.840006 44.64 0.0933386 42.52 0.120005H42.4533H28.6H28.2V4.44C32.9733 4.44 37.7333 4.41334 42.52 4.41334C43.4533 4.41334 44.2533 4.73334 44.9067 5.40001C45.5867 6.06667 45.92 6.86667 45.92 7.8C45.92 8.74667 45.5867 9.54667 44.9067 10.2133C44.2533 10.8667 43.4533 11.2 42.52 11.2V11.1867H28.2V26.8933H32.5067Z" fill="url(#paint4_linear_269_11936)"/>
<path d="M32.5067 26.8933V15.4667V15.4533H40.52L47.1333 26.92H51.8667L45.0267 15.0667C46.5467 14.5467 47.7867 13.6267 48.7467 12.32C49.72 10.9733 50.2 9.46667 50.2 7.8C50.2 5.68 49.4533 3.86667 47.96 2.36001C46.4533 0.840006 44.64 0.0933386 42.52 0.120005H42.4533H28.6H28.2V4.44C32.9733 4.44 37.7333 4.41334 42.52 4.41334C43.4533 4.41334 44.2533 4.73334 44.9067 5.40001C45.5867 6.06667 45.92 6.86667 45.92 7.8C45.92 8.74667 45.5867 9.54667 44.9067 10.2133C44.2533 10.8667 43.4533 11.2 42.52 11.2V11.1867H28.2V26.8933H32.5067Z" fill="white"/>
<path d="M59.16 2.42667C60.68 0.906666 62.5067 0.146667 64.64 0.146667H70.52C72.3867 0.146667 74.04 0.760001 75.48 1.96C76.8667 3.12 77.76 4.57334 78.1333 6.34667H73.44C73.1467 5.77334 72.7467 5.32001 72.2 4.97334C71.6533 4.62667 71.04 4.45334 70.3733 4.45334H65C64.0533 4.45334 63.2267 4.78667 62.5467 5.46667C61.8667 6.13333 61.5333 6.94667 61.5333 7.90667C61.5333 8.86667 61.8667 9.68001 62.5467 10.36C63.2267 11.0533 64.0533 11.3733 65 11.3733H70.52C72.6533 11.3733 74.48 12.1333 76 13.6533C77.52 15.1733 78.28 17 78.28 19.1333C78.28 21.28 77.52 23.12 76 24.64C74.4933 26.16 72.6533 26.92 70.52 26.92H64.64C62.5067 26.92 60.68 26.16 59.16 24.64C57.68 23.1467 56.92 21.3733 56.88 19.3067H61.5867C61.6267 20.1867 61.9733 20.9467 62.6 21.5867C63.28 22.2667 64.0933 22.6133 65.0533 22.6133H70.16C71.1067 22.6133 71.9333 22.2667 72.6133 21.5867C73.2933 20.92 73.6267 20.0933 73.6267 19.1333C73.6267 18.2 73.2933 17.3733 72.6133 16.7067C71.92 16.0267 71.1067 15.68 70.16 15.68H64.64C62.5067 15.68 60.68 14.92 59.16 13.4C57.64 11.88 56.88 10.0533 56.88 7.92001C56.88 5.77334 57.64 3.94667 59.16 2.42667Z" fill="url(#paint5_linear_269_11936)"/>
<path d="M59.16 2.42667C60.68 0.906666 62.5067 0.146667 64.64 0.146667H70.52C72.3867 0.146667 74.04 0.760001 75.48 1.96C76.8667 3.12 77.76 4.57334 78.1333 6.34667H73.44C73.1467 5.77334 72.7467 5.32001 72.2 4.97334C71.6533 4.62667 71.04 4.45334 70.3733 4.45334H65C64.0533 4.45334 63.2267 4.78667 62.5467 5.46667C61.8667 6.13333 61.5333 6.94667 61.5333 7.90667C61.5333 8.86667 61.8667 9.68001 62.5467 10.36C63.2267 11.0533 64.0533 11.3733 65 11.3733H70.52C72.6533 11.3733 74.48 12.1333 76 13.6533C77.52 15.1733 78.28 17 78.28 19.1333C78.28 21.28 77.52 23.12 76 24.64C74.4933 26.16 72.6533 26.92 70.52 26.92H64.64C62.5067 26.92 60.68 26.16 59.16 24.64C57.68 23.1467 56.92 21.3733 56.88 19.3067H61.5867C61.6267 20.1867 61.9733 20.9467 62.6 21.5867C63.28 22.2667 64.0933 22.6133 65.0533 22.6133H70.16C71.1067 22.6133 71.9333 22.2667 72.6133 21.5867C73.2933 20.92 73.6267 20.0933 73.6267 19.1333C73.6267 18.2 73.2933 17.3733 72.6133 16.7067C71.92 16.0267 71.1067 15.68 70.16 15.68H64.64C62.5067 15.68 60.68 14.92 59.16 13.4C57.64 11.88 56.88 10.0533 56.88 7.92001C56.88 5.77334 57.64 3.94667 59.16 2.42667Z" fill="white"/>
<defs>
<linearGradient id="paint0_linear_269_11936" x1="11.6543" y1="-8.52533" x2="14.0503" y2="28.6117" gradientUnits="userSpaceOnUse">
<stop stop-color="#7FCCDB"/>
<stop offset="1" stop-color="#2588CA"/>
</linearGradient>
<linearGradient id="paint1_linear_269_11936" x1="11.6543" y1="-8.52533" x2="14.0503" y2="28.6117" gradientUnits="userSpaceOnUse">
<stop stop-color="#7FCCDB"/>
<stop offset="1" stop-color="#2588CA"/>
</linearGradient>
<linearGradient id="paint2_linear_269_11936" x1="11.6543" y1="-8.52533" x2="14.0503" y2="28.6117" gradientUnits="userSpaceOnUse">
<stop stop-color="#7FCCDB"/>
<stop offset="1" stop-color="#2588CA"/>
</linearGradient>
<linearGradient id="paint3_linear_269_11936" x1="11.6543" y1="-8.52533" x2="14.0503" y2="28.6117" gradientUnits="userSpaceOnUse">
<stop stop-color="#7FCCDB"/>
<stop offset="1" stop-color="#2588CA"/>
</linearGradient>
<linearGradient id="paint4_linear_269_11936" x1="11.6543" y1="-8.52533" x2="14.0503" y2="28.6117" gradientUnits="userSpaceOnUse">
<stop stop-color="#7FCCDB"/>
<stop offset="1" stop-color="#2588CA"/>
</linearGradient>
<linearGradient id="paint5_linear_269_11936" x1="11.6543" y1="-8.52533" x2="14.0503" y2="28.6117" gradientUnits="userSpaceOnUse">
<stop stop-color="#7FCCDB"/>
<stop offset="1" stop-color="#2588CA"/>
</linearGradient>
</defs>
</svg>
