<svg width="20" height="20" viewBox="0 0 20 20" fill="none" xmlns="http://www.w3.org/2000/svg">
<path fill-rule="evenodd" clip-rule="evenodd" d="M10.0568 0.000204321C6.54687 -0.0139795 3.28557 1.80716 1.4605 4.80047C-0.364566 7.79378 -0.487081 11.5225 1.13757 14.6288L1.33789 15.0192C1.50209 15.3265 1.53644 15.6865 1.43329 16.0192C1.14742 16.7785 0.908489 17.5546 0.717838 18.343C0.717838 18.743 0.83231 18.9716 1.26158 18.9621C2.0219 18.7942 2.77068 18.5779 3.50332 18.3145C3.81886 18.2276 4.15437 18.2477 4.45725 18.3716C4.73389 18.5049 5.2967 18.8478 5.31578 18.8478C8.99154 20.7806 13.4808 20.2473 16.5998 17.5075C19.7187 14.7677 20.8199 10.3901 19.3676 6.50416C17.9153 2.61821 14.2111 0.0306528 10.0568 0.000204321Z" fill="white"/>
<circle cx="5" cy="10" r="1" fill="#25D4D0"/>
<circle cx="9.76965" cy="10" r="1" fill="#25D4D0"/>
<circle cx="14.5393" cy="10" r="1" fill="#25D4D0"/>
</svg>
