<svg width="80" height="80" viewBox="0 0 80 80" fill="none" xmlns="http://www.w3.org/2000/svg">
<circle cx="40" cy="40" r="40" fill="#25D4D0" fill-opacity="0.2"/>
<circle cx="39.0641" cy="28.3954" r="10.6178" stroke="white" stroke-width="3.33333" stroke-linecap="round" stroke-linejoin="round"/>
<path fill-rule="evenodd" clip-rule="evenodd" d="M22.2222 53.7811C22.2194 53.0347 22.3863 52.2974 22.7104 51.625C23.7274 49.5909 26.5955 48.5129 28.9753 48.0247C30.6917 47.6584 32.4317 47.4137 34.1825 47.2924C37.424 47.0077 40.6842 47.0077 43.9257 47.2924C45.6764 47.4151 47.4164 47.6598 49.133 48.0247C51.5128 48.5129 54.3809 49.4892 55.3979 51.625C56.0497 52.9956 56.0497 54.5869 55.3979 55.9576C54.3809 58.0933 51.5128 59.0697 49.133 59.5375C47.4186 59.919 45.6779 60.1705 43.9257 60.2901C41.2874 60.5138 38.6368 60.5546 35.9929 60.4122C35.3826 60.4122 34.7928 60.4122 34.1825 60.2901C32.4369 60.172 30.7029 59.9204 28.9957 59.5375C26.5955 59.0697 23.7478 58.0933 22.7104 55.9576C22.3879 55.2774 22.2212 54.5338 22.2222 53.7811Z" stroke="white" stroke-width="3.33333" stroke-linecap="round" stroke-linejoin="round"/>
</svg>
